<?xml version="1.0" standalone="no"?>
<!DOCTYPE svg PUBLIC "-//W3C//DTD SVG 20010904//EN"
 "http://www.w3.org/TR/2001/REC-SVG-20010904/DTD/svg10.dtd">
<svg version="1.0" xmlns="http://www.w3.org/2000/svg"
 width="700.000000pt" height="700.000000pt" viewBox="0 0 700.000000 700.000000"
 preserveAspectRatio="xMidYMid meet">
<metadata>
Created by potrace 1.11, written by Peter Selinger 2001-2013
</metadata>
<g transform="translate(0.000000,700.000000) scale(0.100000,-0.100000)"
fill="#000000" stroke="none">
<path d="M0 3500 l0 -3500 3500 0 3500 0 0 3500 0 3500 -3500 0 -3500 0 0
-3500z m2300 2895 c333 -54 765 -301 1135 -647 l61 -57 95 86 c365 330 728
544 1039 614 106 23 272 25 355 4 151 -39 280 -140 362 -286 52 -91 106 -252
128 -379 46 -268 21 -710 -60 -1051 -8 -35 -15 -69 -15 -76 0 -6 64 -33 143
-58 441 -146 770 -329 991 -551 169 -171 243 -335 233 -519 -15 -296 -274
-584 -740 -825 -159 -82 -263 -127 -462 -195 -100 -35 -150 -57 -149 -66 1 -8
13 -71 28 -141 40 -197 56 -336 63 -538 25 -761 -262 -1177 -771 -1121 -330
37 -732 256 -1133 618 -50 46 -96 83 -100 83 -5 0 -27 -18 -48 -41 -22 -22
-98 -88 -168 -146 -290 -239 -588 -405 -867 -484 -107 -30 -331 -38 -419 -14
-256 67 -419 278 -486 626 -52 277 -34 664 50 1034 14 60 25 113 25 117 0 4
-55 25 -122 46 -669 217 -1148 584 -1233 944 -99 422 296 841 1065 1126 74 27
170 60 213 72 89 26 86 20 57 143 -49 204 -72 394 -77 632 -8 336 22 517 117
712 136 278 365 390 690 338z"/>
<path d="M2058 6116 c-144 -39 -232 -183 -275 -450 -21 -137 -13 -478 16 -656
31 -194 63 -331 77 -337 7 -3 57 5 111 16 134 29 438 77 613 96 80 9 145 17
146 18 0 1 45 63 100 137 119 160 266 341 377 463 78 87 80 89 61 107 -53 51
-220 190 -304 253 -361 271 -719 408 -922 353z"/>
<path d="M4641 6105 c-251 -68 -598 -286 -886 -556 l-60 -57 50 -57 c170 -194
453 -550 492 -619 5 -10 54 -19 148 -31 209 -24 391 -53 573 -90 89 -18 164
-30 166 -26 7 12 45 197 60 296 88 569 4 1027 -208 1138 -65 34 -214 35 -335
2z"/>
<path d="M3402 5184 c-106 -120 -282 -338 -282 -348 0 -3 171 -6 381 -6 l381
0 -53 68 c-81 102 -284 344 -311 369 l-24 23 -92 -106z"/>
<path d="M3007 4541 c-59 -5 -109 -10 -111 -12 -2 -2 -46 -69 -99 -149 -147
-226 -323 -532 -451 -787 l-46 -93 66 -132 c120 -241 295 -542 457 -789 l76
-116 98 -7 c350 -22 1067 -12 1100 16 17 13 232 360 329 528 42 74 119 217
171 317 l94 182 -56 111 c-119 237 -307 562 -463 802 -64 97 -81 117 -107 123
-47 9 -937 14 -1058 6z m608 -466 c111 -23 209 -77 290 -159 82 -82 127 -162
155 -272 25 -98 25 -180 0 -278 -44 -171 -159 -314 -312 -385 -175 -82 -330
-82 -506 0 -196 91 -331 303 -332 520 -1 272 195 516 460 573 85 19 159 19
245 1z"/>
<path d="M2430 4483 c-14 -2 -65 -11 -115 -19 -222 -36 -365 -67 -365 -79 0
-25 88 -271 191 -534 9 -22 17 -12 89 121 83 154 224 395 272 465 15 23 28 44
28 47 0 6 -60 6 -100 -1z"/>
<path d="M4460 4485 c0 -3 19 -35 43 -72 65 -102 175 -291 260 -446 41 -76 77
-135 80 -130 14 23 115 285 157 410 l49 143 -37 9 c-66 17 -244 50 -377 71
-132 20 -175 24 -175 15z"/>
<path d="M1485 4266 c-489 -164 -837 -395 -951 -631 -76 -155 -25 -297 170
-483 180 -169 452 -320 796 -439 186 -65 161 -74 211 75 60 181 129 361 210
547 l69 162 -70 163 c-81 188 -189 472 -221 583 -16 53 -28 77 -39 77 -8 0
-87 -24 -175 -54z"/>
<path d="M5300 4252 c-48 -144 -155 -424 -225 -584 l-73 -167 53 -115 c68
-146 181 -426 235 -583 25 -73 48 -123 56 -123 7 0 55 14 106 31 594 199 1015
514 1035 774 20 256 -380 573 -986 779 -195 66 -176 67 -201 -12z"/>
<path d="M4793 3087 c-55 -107 -210 -377 -284 -494 -42 -68 -53 -93 -42 -93
54 0 578 92 590 103 5 6 -83 257 -139 392 -27 66 -54 132 -60 148 -5 15 -13
27 -16 27 -4 0 -26 -37 -49 -83z"/>
<path d="M2142 3143 c-36 -69 -205 -543 -197 -551 12 -13 584 -107 593 -97 1
1 -32 58 -73 125 -86 138 -227 383 -274 478 -17 34 -33 62 -36 62 -2 0 -8 -8
-13 -17z"/>
<path d="M4995 2304 c-199 -43 -619 -104 -710 -104 -28 0 -39 -11 -121 -127
-96 -135 -288 -378 -396 -502 l-65 -74 81 -75 c481 -443 996 -659 1219 -511
73 48 140 158 177 291 68 240 66 604 -6 968 -31 158 -32 160 -52 159 -9 -1
-66 -12 -127 -25z"/>
<path d="M1841 2218 c-107 -502 -100 -908 19 -1154 46 -96 105 -154 182 -180
84 -28 245 -15 380 30 251 83 553 275 836 532 l54 49 -103 115 c-113 127 -239
283 -373 462 -96 129 -82 120 -226 133 -190 18 -571 75 -695 105 -22 5 -43 10
-46 10 -3 0 -16 -46 -28 -102z"/>
<path d="M3120 2160 c0 -9 191 -243 289 -354 l95 -109 44 49 c59 66 194 230
274 334 l66 85 -384 0 c-211 0 -384 -2 -384 -5z"/>
</g>
</svg>
